<svg width="24" height="24" viewBox="0 0 24 24" fill="none" xmlns="http://www.w3.org/2000/svg">
<path fill-rule="evenodd" clip-rule="evenodd" d="M16 3C16.2652 3 16.5196 3.10536 16.7071 3.29289C16.8946 3.48043 17 3.73478 17 4V5H19C19.5304 5 20.0391 5.21071 20.4142 5.58579C20.7893 5.96086 21 6.46957 21 7V19C21 19.5304 20.7893 20.0391 20.4142 20.4142C20.0391 20.7893 19.5304 21 19 21H5C4.46957 21 3.96086 20.7893 3.58579 20.4142C3.21071 20.0391 3 19.5304 3 19V7C3 6.46957 3.21071 5.96086 3.58579 5.58579C3.96086 5.21071 4.46957 5 5 5H7V4C7 3.73478 7.10536 3.48043 7.29289 3.29289C7.48043 3.10536 7.73478 3 8 3C8.26522 3 8.51957 3.10536 8.70711 3.29289C8.89464 3.48043 9 3.73478 9 4V5H15V4C15 3.73478 15.1054 3.48043 15.2929 3.29289C15.4804 3.10536 15.7348 3 16 3ZM8 7H5V9H19V7H8ZM5 11V19H19V11H5ZM7 13C7 12.7348 7.10536 12.4804 7.29289 12.2929C7.48043 12.1054 7.73478 12 8 12H8.01C8.27522 12 8.52957 12.1054 8.71711 12.2929C8.90464 12.4804 9.01 12.7348 9.01 13C9.01 13.2652 8.90464 13.5196 8.71711 13.7071C8.52957 13.8946 8.27522 14 8.01 14H8C7.73478 14 7.48043 13.8946 7.29289 13.7071C7.10536 13.5196 7 13.2652 7 13ZM8 15C7.73478 15 7.48043 15.1054 7.29289 15.2929C7.10536 15.4804 7 15.7348 7 16C7 16.2652 7.10536 16.5196 7.29289 16.7071C7.48043 16.8946 7.73478 17 8 17H8.01C8.27522 17 8.52957 16.8946 8.71711 16.7071C8.90464 16.5196 9.01 16.2652 9.01 16C9.01 15.7348 8.90464 15.4804 8.71711 15.2929C8.52957 15.1054 8.27522 15 8.01 15H8ZM11 13C11 12.7348 11.1054 12.4804 11.2929 12.2929C11.4804 12.1054 11.7348 12 12 12H12.01C12.2752 12 12.5296 12.1054 12.7171 12.2929C12.9046 12.4804 13.01 12.7348 13.01 13C13.01 13.2652 12.9046 13.5196 12.7171 13.7071C12.5296 13.8946 12.2752 14 12.01 14H12C11.7348 14 11.4804 13.8946 11.2929 13.7071C11.1054 13.5196 11 13.2652 11 13ZM12 15C11.7348 15 11.4804 15.1054 11.2929 15.2929C11.1054 15.4804 11 15.7348 11 16C11 16.2652 11.1054 16.5196 11.2929 16.7071C11.4804 16.8946 11.7348 17 12 17H12.01C12.2752 17 12.5296 16.8946 12.7171 16.7071C12.9046 16.5196 13.01 16.2652 13.01 16C13.01 15.7348 12.9046 15.4804 12.7171 15.2929C12.5296 15.1054 12.2752 15 12.01 15H12ZM15 13C15 12.7348 15.1054 12.4804 15.2929 12.2929C15.4804 12.1054 15.7348 12 16 12H16.01C16.2752 12 16.5296 12.1054 16.7171 12.2929C16.9046 12.4804 17.01 12.7348 17.01 13C17.01 13.2652 16.9046 13.5196 16.7171 13.7071C16.5296 13.8946 16.2752 14 16.01 14H16C15.7348 14 15.4804 13.8946 15.2929 13.7071C15.1054 13.5196 15 13.2652 15 13ZM16 15C15.7348 15 15.4804 15.1054 15.2929 15.2929C15.1054 15.4804 15 15.7348 15 16C15 16.2652 15.1054 16.5196 15.2929 16.7071C15.4804 16.8946 15.7348 17 16 17H16.01C16.2752 17 16.5296 16.8946 16.7171 16.7071C16.9046 16.5196 17.01 16.2652 17.01 16C17.01 15.7348 16.9046 15.4804 16.7171 15.2929C16.5296 15.1054 16.2752 15 16.01 15H16Z" fill="black"/>
</svg>
