<svg width="24" height="24" viewBox="0 0 24 24" fill="none" xmlns="http://www.w3.org/2000/svg">
<path fill-rule="evenodd" clip-rule="evenodd" d="M21.1919 5.465C21.3794 5.65252 21.4847 5.90683 21.4847 6.172C21.4847 6.43716 21.3794 6.69147 21.1919 6.879L9.94995 18.122C9.8478 18.2242 9.72651 18.3053 9.59302 18.3606C9.45953 18.4159 9.31645 18.4444 9.17195 18.4444C9.02745 18.4444 8.88437 18.4159 8.75088 18.3606C8.61739 18.3053 8.4961 18.2242 8.39395 18.122L2.80795 12.536C2.71504 12.4431 2.64134 12.3328 2.59106 12.2114C2.54077 12.09 2.51489 11.9599 2.51489 11.8285C2.51489 11.6971 2.54077 11.567 2.59106 11.4456C2.64134 11.3242 2.71504 11.2139 2.80795 11.121C2.90086 11.0281 3.01116 10.9544 3.13255 10.9041C3.25395 10.8538 3.38405 10.8279 3.51545 10.8279C3.64684 10.8279 3.77695 10.8538 3.89834 10.9041C4.01974 10.9544 4.13004 11.0281 4.22295 11.121L9.17295 16.071L19.7769 5.465C19.9645 5.27753 20.2188 5.17221 20.4839 5.17221C20.7491 5.17221 21.0044 5.27753 21.1919 5.465Z" fill="black"/>
</svg>
