<svg width="24" height="24" viewBox="0 0 24 24" fill="none" xmlns="http://www.w3.org/2000/svg">
<g clip-path="url(#clip0_13_398)">
<path fill-rule="evenodd" clip-rule="evenodd" d="M13.0001 14.121L18.3031 19.425C18.5845 19.7064 18.9661 19.8645 19.3641 19.8645C19.762 19.8645 20.1437 19.7064 20.4251 19.425C20.7065 19.1436 20.8646 18.762 20.8646 18.364C20.8646 17.9661 20.7065 17.5844 20.4251 17.303L15.1201 12L20.4241 6.697C20.5634 6.55767 20.6738 6.39227 20.7492 6.21025C20.8245 6.02823 20.8633 5.83315 20.8632 5.63615C20.8632 5.43915 20.8243 5.24409 20.7489 5.0621C20.6735 4.88012 20.5629 4.71477 20.4236 4.5755C20.2843 4.43624 20.1189 4.32578 19.9368 4.25043C19.7548 4.17509 19.5597 4.13633 19.3627 4.13638C19.1657 4.13642 18.9707 4.17527 18.7887 4.2507C18.6067 4.32613 18.4414 4.43667 18.3021 4.576L13.0001 9.879L7.69709 4.576C7.55879 4.43267 7.39333 4.31832 7.21036 4.23963C7.02739 4.16093 6.83058 4.11946 6.63141 4.11763C6.43224 4.11581 6.23471 4.15367 6.05033 4.229C5.86595 4.30434 5.69842 4.41564 5.55752 4.55641C5.41661 4.69718 5.30515 4.86461 5.22964 5.04891C5.15414 5.23322 5.11609 5.43072 5.11773 5.62989C5.11936 5.82906 5.16065 6.02591 5.23917 6.20895C5.3177 6.39199 5.43189 6.55757 5.57509 6.696L10.8801 12L5.57609 17.303C5.2947 17.5844 5.13661 17.9661 5.13661 18.364C5.13661 18.762 5.2947 19.1436 5.57609 19.425C5.85749 19.7064 6.23914 19.8645 6.63709 19.8645C7.03504 19.8645 7.4167 19.7064 7.69809 19.425L13.0001 14.12V14.121Z" fill="black"/>
</g>
<defs>
<clipPath id="clip0_13_398">
<rect width="24" height="24" fill="white"/>
</clipPath>
</defs>
</svg>
