<svg width="24" height="24" viewBox="0 0 24 24" fill="none" xmlns="http://www.w3.org/2000/svg">
<path fill-rule="evenodd" clip-rule="evenodd" d="M12.0001 13.414L17.6571 19.071C17.8457 19.2532 18.0983 19.3539 18.3605 19.3517C18.6227 19.3494 18.8735 19.2442 19.0589 19.0588C19.2443 18.8734 19.3495 18.6226 19.3517 18.3604C19.354 18.0982 19.2532 17.8456 19.0711 17.657L13.4141 12L19.0711 6.343C19.2532 6.15439 19.354 5.90179 19.3517 5.6396C19.3495 5.3774 19.2443 5.12659 19.0589 4.94118C18.8735 4.75577 18.6227 4.6506 18.3605 4.64832C18.0983 4.64604 17.8457 4.74684 17.6571 4.929L12.0001 10.586L6.34307 4.929C6.15362 4.75134 5.90248 4.65436 5.6428 4.65858C5.38311 4.6628 5.13526 4.76788 4.95168 4.95159C4.76809 5.1353 4.66319 5.38323 4.65915 5.64292C4.65512 5.9026 4.75228 6.15367 4.93007 6.343L10.5861 12L4.92907 17.657C4.83356 17.7492 4.75738 17.8596 4.70497 17.9816C4.65256 18.1036 4.62497 18.2348 4.62382 18.3676C4.62266 18.5004 4.64796 18.6321 4.69825 18.755C4.74853 18.8778 4.82278 18.9895 4.91667 19.0834C5.01057 19.1773 5.12222 19.2515 5.24511 19.3018C5.36801 19.3521 5.49969 19.3774 5.63247 19.3762C5.76525 19.3751 5.89647 19.3475 6.01847 19.2951C6.14048 19.2427 6.25082 19.1665 6.34307 19.071L12.0001 13.414Z" fill="black"/>
</svg>
