<svg width="24" height="24" viewBox="0 0 24 24" fill="none" xmlns="http://www.w3.org/2000/svg">
<path d="M20.9521 3.048C20.2811 2.37701 19.371 2.00006 18.4221 2.00006C17.4732 2.00006 16.5631 2.37701 15.8921 3.048L3.94011 15C3.5339 15.4062 3.24832 15.9172 3.11511 16.476L2.02011 21.078C1.99046 21.2027 1.99324 21.3328 2.02819 21.4561C2.06313 21.5794 2.12907 21.6916 2.21972 21.7822C2.31037 21.8727 2.42271 21.9385 2.54601 21.9733C2.66932 22.0082 2.79949 22.0108 2.92411 21.981L7.52511 20.885C8.0843 20.752 8.5956 20.4664 9.00211 20.06L20.9521 8.11C21.6231 7.439 22.0001 6.52893 22.0001 5.58C22.0001 4.63107 21.6231 3.721 20.9521 3.05M16.9521 4.11C17.1452 3.91696 17.3743 3.76383 17.6266 3.65935C17.8788 3.55488 18.1491 3.50111 18.4221 3.50111C18.6951 3.50111 18.9654 3.55488 19.2177 3.65935C19.4699 3.76383 19.6991 3.91696 19.8921 4.11C20.0852 4.30304 20.2383 4.53222 20.3428 4.78444C20.4472 5.03667 20.501 5.307 20.501 5.58C20.501 5.85301 20.4472 6.12334 20.3428 6.37556C20.2383 6.62778 20.0852 6.85696 19.8921 7.05L19.0001 7.939L16.0601 5L16.9521 4.11ZM15.0001 6.062L17.9401 9L7.94011 19C7.73011 19.21 7.46611 19.357 7.17711 19.426L3.76111 20.24L4.57411 16.824C4.64311 16.534 4.79111 16.27 5.00111 16.06L15.0001 6.062Z" fill="white"/>
</svg>
