<svg width="24" height="24" viewBox="0 0 24 24" fill="none" xmlns="http://www.w3.org/2000/svg">
<path fill-rule="evenodd" clip-rule="evenodd" d="M16 14C17.2885 14.0001 18.5272 14.4975 19.4578 15.3887C20.3884 16.2798 20.9391 17.4958 20.995 18.783L21 19V21C20.9997 21.2549 20.9021 21.5 20.7272 21.6854C20.5522 21.8707 20.313 21.9822 20.0586 21.9972C19.8042 22.0121 19.5536 21.9293 19.3582 21.7657C19.1627 21.6021 19.0371 21.3701 19.007 21.117L19 21V19C19 18.2348 18.7077 17.4985 18.1827 16.9417C17.6578 16.385 16.9399 16.0499 16.176 16.005L16 16H8C7.23479 16 6.49849 16.2923 5.94174 16.8173C5.38499 17.3422 5.04989 18.0601 5.005 18.824L5 19V21C4.99972 21.2549 4.90212 21.5 4.72715 21.6854C4.55218 21.8707 4.31305 21.9822 4.05861 21.9972C3.80416 22.0121 3.55362 21.9293 3.35817 21.7657C3.16271 21.6021 3.0371 21.3701 3.007 21.117L3 21V19C3.00007 17.7115 3.49754 16.4728 4.38866 15.5422C5.27978 14.6116 6.49575 14.0609 7.783 14.005L8 14H16ZM12 2C13.3261 2 14.5979 2.52678 15.5355 3.46447C16.4732 4.40215 17 5.67392 17 7C17 8.32608 16.4732 9.59785 15.5355 10.5355C14.5979 11.4732 13.3261 12 12 12C10.6739 12 9.40215 11.4732 8.46447 10.5355C7.52678 9.59785 7 8.32608 7 7C7 5.67392 7.52678 4.40215 8.46447 3.46447C9.40215 2.52678 10.6739 2 12 2ZM12 4C11.606 4 11.2159 4.0776 10.8519 4.22836C10.488 4.37913 10.1573 4.6001 9.87868 4.87868C9.6001 5.15726 9.37913 5.48797 9.22836 5.85195C9.0776 6.21593 9 6.60603 9 7C9 7.39397 9.0776 7.78407 9.22836 8.14805C9.37913 8.51203 9.6001 8.84274 9.87868 9.12132C10.1573 9.3999 10.488 9.62087 10.8519 9.77164C11.2159 9.9224 11.606 10 12 10C12.7956 10 13.5587 9.68393 14.1213 9.12132C14.6839 8.55871 15 7.79565 15 7C15 6.20435 14.6839 5.44129 14.1213 4.87868C13.5587 4.31607 12.7956 4 12 4Z" fill="black"/>
</svg>
